<mxfile host="app.diagrams.net" agent="Mozilla/5.0 (Windows NT 10.0; Win64; x64) AppleWebKit/537.36 (KHTML, like Gecko) Chrome/130.0.0.0 Safari/537.36 Edg/130.0.0.0" border="50" scale="3" compressed="false" locked="false" version="24.8.6">
  <diagram name="Blank" id="YmL12bMKpDGza6XwsDPr">
    <mxGraphModel dx="2323" dy="3088" grid="0" gridSize="10" guides="1" tooltips="1" connect="1" arrows="1" fold="1" page="0" pageScale="1" pageWidth="827" pageHeight="1169" background="none" math="1" shadow="0">
      <root>
        <mxCell id="X5NqExCQtvZxIxQ7pmgY-0" />
        <mxCell id="1" parent="X5NqExCQtvZxIxQ7pmgY-0" />
        <mxCell id="Q-_gXrq_E2TkwT5E2vg7-4" value="&lt;b&gt;&lt;font style=&quot;font-size: 16px;&quot;&gt;Custom Resource Definition&lt;/font&gt;&lt;/b&gt;" style="ellipse;whiteSpace=wrap;html=1;" vertex="1" parent="1">
          <mxGeometry x="-114" y="-1796" width="230" height="80" as="geometry" />
        </mxCell>
        <mxCell id="Q-_gXrq_E2TkwT5E2vg7-5" value="&lt;span style=&quot;color: rgb(34, 34, 34); font-family: &amp;quot;open sans&amp;quot;, -apple-system, BlinkMacSystemFont, &amp;quot;segoe ui&amp;quot;, Roboto, &amp;quot;helvetica neue&amp;quot;, Arial, sans-serif, &amp;quot;apple color emoji&amp;quot;, &amp;quot;segoe ui emoji&amp;quot;, &amp;quot;segoe ui symbol&amp;quot;; font-size: 16px; text-align: left;&quot;&gt;当你创建新的 CustomResourceDefinition（CRD）时，&lt;/span&gt;&lt;div&gt;&lt;span style=&quot;color: rgb(34, 34, 34); font-family: &amp;quot;open sans&amp;quot;, -apple-system, BlinkMacSystemFont, &amp;quot;segoe ui&amp;quot;, Roboto, &amp;quot;helvetica neue&amp;quot;, Arial, sans-serif, &amp;quot;apple color emoji&amp;quot;, &amp;quot;segoe ui emoji&amp;quot;, &amp;quot;segoe ui symbol&amp;quot;; font-size: 16px; text-align: left;&quot;&gt;Kubernetes &lt;/span&gt;&lt;span style=&quot;font-family: &amp;quot;open sans&amp;quot;, -apple-system, BlinkMacSystemFont, &amp;quot;segoe ui&amp;quot;, Roboto, &amp;quot;helvetica neue&amp;quot;, Arial, sans-serif, &amp;quot;apple color emoji&amp;quot;, &amp;quot;segoe ui emoji&amp;quot;, &amp;quot;segoe ui symbol&amp;quot;; font-size: 16px; text-align: left;&quot;&gt;&lt;font color=&quot;#ff3333&quot;&gt;&lt;b&gt;API&lt;/b&gt;&lt;/font&gt;&lt;/span&gt;&lt;span style=&quot;color: rgb(34, 34, 34); font-family: &amp;quot;open sans&amp;quot;, -apple-system, BlinkMacSystemFont, &amp;quot;segoe ui&amp;quot;, Roboto, &amp;quot;helvetica neue&amp;quot;, Arial, sans-serif, &amp;quot;apple color emoji&amp;quot;, &amp;quot;segoe ui emoji&amp;quot;, &amp;quot;segoe ui symbol&amp;quot;; font-size: 16px; text-align: left;&quot;&gt; 服务器会为你所指定的每个版本&lt;b&gt;生成一个新的 RESTful 资源路径&lt;/b&gt;&lt;/span&gt;&lt;/div&gt;" style="whiteSpace=wrap;html=1;rounded=1;arcSize=50;align=center;verticalAlign=middle;strokeWidth=1;autosize=1;spacing=4;treeFolding=1;treeMoving=1;newEdgeStyle={&quot;edgeStyle&quot;:&quot;entityRelationEdgeStyle&quot;,&quot;startArrow&quot;:&quot;none&quot;,&quot;endArrow&quot;:&quot;none&quot;,&quot;segment&quot;:10,&quot;curved&quot;:1,&quot;sourcePerimeterSpacing&quot;:0,&quot;targetPerimeterSpacing&quot;:0};" vertex="1" parent="1">
          <mxGeometry x="214.5" y="-1856" width="600" height="60" as="geometry" />
        </mxCell>
        <mxCell id="Q-_gXrq_E2TkwT5E2vg7-6" value="" style="edgeStyle=entityRelationEdgeStyle;startArrow=none;endArrow=none;segment=10;curved=1;sourcePerimeterSpacing=0;targetPerimeterSpacing=0;rounded=0;" edge="1" target="Q-_gXrq_E2TkwT5E2vg7-5" parent="1" source="Q-_gXrq_E2TkwT5E2vg7-4">
          <mxGeometry relative="1" as="geometry">
            <mxPoint x="364.5" y="-1760" as="sourcePoint" />
          </mxGeometry>
        </mxCell>
        <mxCell id="Q-_gXrq_E2TkwT5E2vg7-3" value="" style="aspect=fixed;sketch=0;html=1;dashed=0;whitespace=wrap;verticalLabelPosition=bottom;verticalAlign=top;fillColor=#2875E2;strokeColor=#ffffff;points=[[0.005,0.63,0],[0.1,0.2,0],[0.9,0.2,0],[0.5,0,0],[0.995,0.63,0],[0.72,0.99,0],[0.5,1,0],[0.28,0.99,0]];shape=mxgraph.kubernetes.icon2;kubernetesLabel=1;prIcon=crd" vertex="1" parent="1">
          <mxGeometry x="-45.870000000000005" y="-1861" width="93.75" height="90" as="geometry" />
        </mxCell>
        <mxCell id="Q-_gXrq_E2TkwT5E2vg7-7" value="&lt;h1 style=&quot;margin-top: 0px;&quot;&gt;CRD example&lt;/h1&gt;&lt;pre style=&quot;box-sizing: border-box; font-family: SFMono-Regular, Menlo, Monaco, Consolas, &amp;quot;liberation mono&amp;quot;, &amp;quot;courier new&amp;quot;, monospace; font-size: 14px; margin-top: 0px; margin-bottom: 0px; overflow: auto; color: rgb(34, 34, 34); overflow-wrap: normal; background-color: rgb(248, 248, 248); padding: 1rem; tab-size: 4;&quot; tabindex=&quot;0&quot;&gt;&lt;code style=&quot;box-sizing: border-box; font-family: SFMono-Regular, Menlo, Monaco, Consolas, &amp;quot;liberation mono&amp;quot;, &amp;quot;courier new&amp;quot;, monospace; color: inherit; overflow-wrap: break-word; word-break: normal; padding: 0px; margin: 0px; border: 0px; background-color: inherit !important;&quot; data-lang=&quot;yaml&quot; class=&quot;language-yaml&quot;&gt;&lt;span style=&quot;box-sizing: border-box; height: 1.6em; display: flex;&quot;&gt;&lt;span style=&quot;box-sizing: border-box;&quot;&gt;&lt;span style=&quot;box-sizing: border-box; color: green; font-weight: 700;&quot;&gt;apiVersion&lt;/span&gt;:&lt;span style=&quot;box-sizing: border-box; color: rgb(187, 187, 187);&quot;&gt; &lt;/span&gt;apiextensions.k8s.io/v1&lt;span style=&quot;box-sizing: border-box; color: rgb(187, 187, 187);&quot;&gt;&lt;br/&gt;&lt;/span&gt;&lt;/span&gt;&lt;/span&gt;&lt;span style=&quot;box-sizing: border-box; height: 1.6em; display: flex;&quot;&gt;&lt;span style=&quot;box-sizing: border-box;&quot;&gt;&lt;span style=&quot;box-sizing: border-box; color: rgb(187, 187, 187);&quot;&gt;&lt;/span&gt;&lt;span style=&quot;box-sizing: border-box; color: green; font-weight: 700;&quot;&gt;kind&lt;/span&gt;:&lt;span style=&quot;box-sizing: border-box; color: rgb(187, 187, 187);&quot;&gt; &lt;/span&gt;CustomResourceDefinition&lt;span style=&quot;box-sizing: border-box; color: rgb(187, 187, 187);&quot;&gt;&lt;br/&gt;&lt;/span&gt;&lt;/span&gt;&lt;/span&gt;&lt;span style=&quot;box-sizing: border-box; height: 1.6em; display: flex;&quot;&gt;&lt;span style=&quot;box-sizing: border-box;&quot;&gt;&lt;span style=&quot;box-sizing: border-box; color: rgb(187, 187, 187);&quot;&gt;&lt;/span&gt;&lt;span style=&quot;box-sizing: border-box; color: green; font-weight: 700;&quot;&gt;metadata&lt;/span&gt;:&lt;span style=&quot;box-sizing: border-box; color: rgb(187, 187, 187);&quot;&gt;&lt;br/&gt;&lt;/span&gt;&lt;/span&gt;&lt;/span&gt;&lt;span style=&quot;box-sizing: border-box; height: 1.6em; display: flex;&quot;&gt;&lt;span style=&quot;box-sizing: border-box;&quot;&gt;&lt;span style=&quot;box-sizing: border-box; color: rgb(187, 187, 187);&quot;&gt;  &lt;/span&gt;&lt;span style=&quot;box-sizing: border-box; color: rgb(0, 136, 0); font-style: italic;&quot;&gt;# 名字必需与下面的 spec 字段匹配，并且格式为 &#39;&amp;lt;名称的复数形式&amp;gt;.&amp;lt;组名&amp;gt;&#39;&lt;/span&gt;&lt;span style=&quot;box-sizing: border-box; color: rgb(187, 187, 187);&quot;&gt;&lt;br/&gt;&lt;/span&gt;&lt;/span&gt;&lt;/span&gt;&lt;span style=&quot;box-sizing: border-box; height: 1.6em; display: flex;&quot;&gt;&lt;span style=&quot;box-sizing: border-box;&quot;&gt;&lt;span style=&quot;box-sizing: border-box; color: rgb(187, 187, 187);&quot;&gt;  &lt;/span&gt;&lt;span style=&quot;box-sizing: border-box; color: green; font-weight: 700;&quot;&gt;name&lt;/span&gt;:&lt;span style=&quot;box-sizing: border-box; color: rgb(187, 187, 187);&quot;&gt; &lt;/span&gt;crontabs.stable.example.com&lt;span style=&quot;box-sizing: border-box; color: rgb(187, 187, 187);&quot;&gt;&lt;br/&gt;&lt;/span&gt;&lt;/span&gt;&lt;/span&gt;&lt;span style=&quot;box-sizing: border-box; height: 1.6em; display: flex;&quot;&gt;&lt;span style=&quot;box-sizing: border-box;&quot;&gt;&lt;span style=&quot;box-sizing: border-box; color: rgb(187, 187, 187);&quot;&gt;&lt;/span&gt;&lt;span style=&quot;box-sizing: border-box; color: green; font-weight: 700;&quot;&gt;spec&lt;/span&gt;:&lt;span style=&quot;box-sizing: border-box; color: rgb(187, 187, 187);&quot;&gt;&lt;br/&gt;&lt;/span&gt;&lt;/span&gt;&lt;/span&gt;&lt;span style=&quot;box-sizing: border-box; height: 1.6em; display: flex;&quot;&gt;&lt;span style=&quot;box-sizing: border-box;&quot;&gt;&lt;span style=&quot;box-sizing: border-box; color: rgb(187, 187, 187);&quot;&gt;  &lt;/span&gt;&lt;span style=&quot;box-sizing: border-box; color: rgb(0, 136, 0); font-style: italic;&quot;&gt;# 组名称，用于 REST API: /apis/&amp;lt;组&amp;gt;/&amp;lt;版本&amp;gt;&lt;/span&gt;&lt;span style=&quot;box-sizing: border-box; color: rgb(187, 187, 187);&quot;&gt;&lt;br/&gt;&lt;/span&gt;&lt;/span&gt;&lt;/span&gt;&lt;span style=&quot;box-sizing: border-box; height: 1.6em; display: flex;&quot;&gt;&lt;span style=&quot;box-sizing: border-box;&quot;&gt;&lt;span style=&quot;box-sizing: border-box; color: rgb(187, 187, 187);&quot;&gt;  &lt;/span&gt;&lt;span style=&quot;box-sizing: border-box; color: green; font-weight: 700;&quot;&gt;group&lt;/span&gt;:&lt;span style=&quot;box-sizing: border-box; color: rgb(187, 187, 187);&quot;&gt; &lt;/span&gt;stable.example.com&lt;span style=&quot;box-sizing: border-box; color: rgb(187, 187, 187);&quot;&gt;&lt;br/&gt;&lt;/span&gt;&lt;/span&gt;&lt;/span&gt;&lt;span style=&quot;box-sizing: border-box; height: 1.6em; display: flex;&quot;&gt;&lt;span style=&quot;box-sizing: border-box;&quot;&gt;&lt;span style=&quot;box-sizing: border-box; color: rgb(187, 187, 187);&quot;&gt;  &lt;/span&gt;&lt;span style=&quot;box-sizing: border-box; color: rgb(0, 136, 0); font-style: italic;&quot;&gt;# 列举此 CustomResourceDefinition 所支持的版本&lt;/span&gt;&lt;span style=&quot;box-sizing: border-box; color: rgb(187, 187, 187);&quot;&gt;&lt;br/&gt;&lt;/span&gt;&lt;/span&gt;&lt;/span&gt;&lt;span style=&quot;box-sizing: border-box; height: 1.6em; display: flex;&quot;&gt;&lt;span style=&quot;box-sizing: border-box;&quot;&gt;&lt;span style=&quot;box-sizing: border-box; color: rgb(187, 187, 187);&quot;&gt;  &lt;/span&gt;&lt;span style=&quot;box-sizing: border-box; color: green; font-weight: 700;&quot;&gt;versions&lt;/span&gt;:&lt;span style=&quot;box-sizing: border-box; color: rgb(187, 187, 187);&quot;&gt;&lt;br/&gt;&lt;/span&gt;&lt;/span&gt;&lt;/span&gt;&lt;span style=&quot;box-sizing: border-box; height: 1.6em; display: flex;&quot;&gt;&lt;span style=&quot;box-sizing: border-box;&quot;&gt;&lt;span style=&quot;box-sizing: border-box; color: rgb(187, 187, 187);&quot;&gt;    &lt;/span&gt;- &lt;span style=&quot;box-sizing: border-box; color: green; font-weight: 700;&quot;&gt;name&lt;/span&gt;:&lt;span style=&quot;box-sizing: border-box; color: rgb(187, 187, 187);&quot;&gt; &lt;/span&gt;v1&lt;span style=&quot;box-sizing: border-box; color: rgb(187, 187, 187);&quot;&gt;&lt;br/&gt;&lt;/span&gt;&lt;/span&gt;&lt;/span&gt;&lt;span style=&quot;box-sizing: border-box; height: 1.6em; display: flex;&quot;&gt;&lt;span style=&quot;box-sizing: border-box;&quot;&gt;&lt;span style=&quot;box-sizing: border-box; color: rgb(187, 187, 187);&quot;&gt;      &lt;/span&gt;&lt;span style=&quot;box-sizing: border-box; color: rgb(0, 136, 0); font-style: italic;&quot;&gt;# 每个版本都可以通过 served 标志来独立启用或禁止&lt;/span&gt;&lt;span style=&quot;box-sizing: border-box; color: rgb(187, 187, 187);&quot;&gt;&lt;br/&gt;&lt;/span&gt;&lt;/span&gt;&lt;/span&gt;&lt;span style=&quot;box-sizing: border-box; height: 1.6em; display: flex;&quot;&gt;&lt;span style=&quot;box-sizing: border-box;&quot;&gt;&lt;span style=&quot;box-sizing: border-box; color: rgb(187, 187, 187);&quot;&gt;      &lt;/span&gt;&lt;span style=&quot;box-sizing: border-box; color: green; font-weight: 700;&quot;&gt;served&lt;/span&gt;:&lt;span style=&quot;box-sizing: border-box; color: rgb(187, 187, 187);&quot;&gt; &lt;/span&gt;&lt;span style=&quot;box-sizing: border-box; color: rgb(170, 34, 255); font-weight: 700;&quot;&gt;true&lt;/span&gt;&lt;span style=&quot;box-sizing: border-box; color: rgb(187, 187, 187);&quot;&gt;&lt;br/&gt;&lt;/span&gt;&lt;/span&gt;&lt;/span&gt;&lt;span style=&quot;box-sizing: border-box; height: 1.6em; display: flex;&quot;&gt;&lt;span style=&quot;box-sizing: border-box;&quot;&gt;&lt;span style=&quot;box-sizing: border-box; color: rgb(187, 187, 187);&quot;&gt;      &lt;/span&gt;&lt;span style=&quot;box-sizing: border-box; color: rgb(0, 136, 0); font-style: italic;&quot;&gt;# 其中一个且只有一个版本必需被标记为存储版本&lt;/span&gt;&lt;span style=&quot;box-sizing: border-box; color: rgb(187, 187, 187);&quot;&gt;&lt;br/&gt;&lt;/span&gt;&lt;/span&gt;&lt;/span&gt;&lt;span style=&quot;box-sizing: border-box; height: 1.6em; display: flex;&quot;&gt;&lt;span style=&quot;box-sizing: border-box;&quot;&gt;&lt;span style=&quot;box-sizing: border-box; color: rgb(187, 187, 187);&quot;&gt;      &lt;/span&gt;&lt;span style=&quot;box-sizing: border-box; color: green; font-weight: 700;&quot;&gt;storage&lt;/span&gt;:&lt;span style=&quot;box-sizing: border-box; color: rgb(187, 187, 187);&quot;&gt; &lt;/span&gt;&lt;span style=&quot;box-sizing: border-box; color: rgb(170, 34, 255); font-weight: 700;&quot;&gt;true&lt;/span&gt;&lt;span style=&quot;box-sizing: border-box; color: rgb(187, 187, 187);&quot;&gt;&lt;br/&gt;&lt;/span&gt;&lt;/span&gt;&lt;/span&gt;&lt;span style=&quot;box-sizing: border-box; height: 1.6em; display: flex;&quot;&gt;&lt;span style=&quot;box-sizing: border-box;&quot;&gt;&lt;span style=&quot;box-sizing: border-box; color: rgb(187, 187, 187);&quot;&gt;      &lt;/span&gt;&lt;span style=&quot;box-sizing: border-box; color: green; font-weight: 700;&quot;&gt;schema&lt;/span&gt;:&lt;span style=&quot;box-sizing: border-box; color: rgb(187, 187, 187);&quot;&gt;&lt;br/&gt;&lt;/span&gt;&lt;/span&gt;&lt;/span&gt;&lt;span style=&quot;box-sizing: border-box; height: 1.6em; display: flex;&quot;&gt;&lt;span style=&quot;box-sizing: border-box;&quot;&gt;&lt;span style=&quot;box-sizing: border-box; color: rgb(187, 187, 187);&quot;&gt;        &lt;/span&gt;&lt;span style=&quot;box-sizing: border-box; color: green; font-weight: 700;&quot;&gt;openAPIV3Schema&lt;/span&gt;:&lt;span style=&quot;box-sizing: border-box; color: rgb(187, 187, 187);&quot;&gt;&lt;br/&gt;&lt;/span&gt;&lt;/span&gt;&lt;/span&gt;&lt;span style=&quot;box-sizing: border-box; height: 1.6em; display: flex;&quot;&gt;&lt;span style=&quot;box-sizing: border-box;&quot;&gt;&lt;span style=&quot;box-sizing: border-box; color: rgb(187, 187, 187);&quot;&gt;          &lt;/span&gt;&lt;span style=&quot;box-sizing: border-box; color: green; font-weight: 700;&quot;&gt;type&lt;/span&gt;:&lt;span style=&quot;box-sizing: border-box; color: rgb(187, 187, 187);&quot;&gt; &lt;/span&gt;object&lt;span style=&quot;box-sizing: border-box; color: rgb(187, 187, 187);&quot;&gt;&lt;br/&gt;&lt;/span&gt;&lt;/span&gt;&lt;/span&gt;&lt;span style=&quot;box-sizing: border-box; height: 1.6em; display: flex;&quot;&gt;&lt;span style=&quot;box-sizing: border-box;&quot;&gt;&lt;span style=&quot;box-sizing: border-box; color: rgb(187, 187, 187);&quot;&gt;          &lt;/span&gt;&lt;span style=&quot;box-sizing: border-box; color: green; font-weight: 700;&quot;&gt;properties&lt;/span&gt;:&lt;span style=&quot;box-sizing: border-box; color: rgb(187, 187, 187);&quot;&gt;&lt;br/&gt;&lt;/span&gt;&lt;/span&gt;&lt;/span&gt;&lt;span style=&quot;box-sizing: border-box; height: 1.6em; display: flex;&quot;&gt;&lt;span style=&quot;box-sizing: border-box;&quot;&gt;&lt;span style=&quot;box-sizing: border-box; color: rgb(187, 187, 187);&quot;&gt;            &lt;/span&gt;&lt;span style=&quot;box-sizing: border-box; color: green; font-weight: 700;&quot;&gt;spec&lt;/span&gt;:&lt;span style=&quot;box-sizing: border-box; color: rgb(187, 187, 187);&quot;&gt;&lt;br/&gt;&lt;/span&gt;&lt;/span&gt;&lt;/span&gt;&lt;span style=&quot;box-sizing: border-box; height: 1.6em; display: flex;&quot;&gt;&lt;span style=&quot;box-sizing: border-box;&quot;&gt;&lt;span style=&quot;box-sizing: border-box; color: rgb(187, 187, 187);&quot;&gt;              &lt;/span&gt;&lt;span style=&quot;box-sizing: border-box; color: green; font-weight: 700;&quot;&gt;type&lt;/span&gt;:&lt;span style=&quot;box-sizing: border-box; color: rgb(187, 187, 187);&quot;&gt; &lt;/span&gt;object&lt;span style=&quot;box-sizing: border-box; color: rgb(187, 187, 187);&quot;&gt;&lt;br/&gt;&lt;/span&gt;&lt;/span&gt;&lt;/span&gt;&lt;span style=&quot;box-sizing: border-box; height: 1.6em; display: flex;&quot;&gt;&lt;span style=&quot;box-sizing: border-box;&quot;&gt;&lt;span style=&quot;box-sizing: border-box; color: rgb(187, 187, 187);&quot;&gt;              &lt;/span&gt;&lt;span style=&quot;box-sizing: border-box; color: green; font-weight: 700;&quot;&gt;properties&lt;/span&gt;:&lt;span style=&quot;box-sizing: border-box; color: rgb(187, 187, 187);&quot;&gt;&lt;br/&gt;&lt;/span&gt;&lt;/span&gt;&lt;/span&gt;&lt;span style=&quot;box-sizing: border-box; height: 1.6em; display: flex;&quot;&gt;&lt;span style=&quot;box-sizing: border-box;&quot;&gt;&lt;span style=&quot;box-sizing: border-box; color: rgb(187, 187, 187);&quot;&gt;                &lt;/span&gt;&lt;span style=&quot;box-sizing: border-box; color: green; font-weight: 700;&quot;&gt;cronSpec&lt;/span&gt;:&lt;span style=&quot;box-sizing: border-box; color: rgb(187, 187, 187);&quot;&gt;&lt;br/&gt;&lt;/span&gt;&lt;/span&gt;&lt;/span&gt;&lt;span style=&quot;box-sizing: border-box; height: 1.6em; display: flex;&quot;&gt;&lt;span style=&quot;box-sizing: border-box;&quot;&gt;&lt;span style=&quot;box-sizing: border-box; color: rgb(187, 187, 187);&quot;&gt;                  &lt;/span&gt;&lt;span style=&quot;box-sizing: border-box; color: green; font-weight: 700;&quot;&gt;type&lt;/span&gt;:&lt;span style=&quot;box-sizing: border-box; color: rgb(187, 187, 187);&quot;&gt; &lt;/span&gt;string&lt;span style=&quot;box-sizing: border-box; color: rgb(187, 187, 187);&quot;&gt;&lt;br/&gt;&lt;/span&gt;&lt;/span&gt;&lt;/span&gt;&lt;span style=&quot;box-sizing: border-box; height: 1.6em; display: flex;&quot;&gt;&lt;span style=&quot;box-sizing: border-box;&quot;&gt;&lt;span style=&quot;box-sizing: border-box; color: rgb(187, 187, 187);&quot;&gt;                &lt;/span&gt;&lt;span style=&quot;box-sizing: border-box; color: green; font-weight: 700;&quot;&gt;image&lt;/span&gt;:&lt;span style=&quot;box-sizing: border-box; color: rgb(187, 187, 187);&quot;&gt;&lt;br/&gt;&lt;/span&gt;&lt;/span&gt;&lt;/span&gt;&lt;span style=&quot;box-sizing: border-box; height: 1.6em; display: flex;&quot;&gt;&lt;span style=&quot;box-sizing: border-box;&quot;&gt;&lt;span style=&quot;box-sizing: border-box; color: rgb(187, 187, 187);&quot;&gt;                  &lt;/span&gt;&lt;span style=&quot;box-sizing: border-box; color: green; font-weight: 700;&quot;&gt;type&lt;/span&gt;:&lt;span style=&quot;box-sizing: border-box; color: rgb(187, 187, 187);&quot;&gt; &lt;/span&gt;string&lt;span style=&quot;box-sizing: border-box; color: rgb(187, 187, 187);&quot;&gt;&lt;br/&gt;&lt;/span&gt;&lt;/span&gt;&lt;/span&gt;&lt;span style=&quot;box-sizing: border-box; height: 1.6em; display: flex;&quot;&gt;&lt;span style=&quot;box-sizing: border-box;&quot;&gt;&lt;span style=&quot;box-sizing: border-box; color: rgb(187, 187, 187);&quot;&gt;                &lt;/span&gt;&lt;span style=&quot;box-sizing: border-box; color: green; font-weight: 700;&quot;&gt;replicas&lt;/span&gt;:&lt;span style=&quot;box-sizing: border-box; color: rgb(187, 187, 187);&quot;&gt;&lt;br/&gt;&lt;/span&gt;&lt;/span&gt;&lt;/span&gt;&lt;span style=&quot;box-sizing: border-box; height: 1.6em; display: flex;&quot;&gt;&lt;span style=&quot;box-sizing: border-box;&quot;&gt;&lt;span style=&quot;box-sizing: border-box; color: rgb(187, 187, 187);&quot;&gt;                  &lt;/span&gt;&lt;span style=&quot;box-sizing: border-box; color: green; font-weight: 700;&quot;&gt;type&lt;/span&gt;:&lt;span style=&quot;box-sizing: border-box; color: rgb(187, 187, 187);&quot;&gt; &lt;/span&gt;integer&lt;span style=&quot;box-sizing: border-box; color: rgb(187, 187, 187);&quot;&gt;&lt;br/&gt;&lt;/span&gt;&lt;/span&gt;&lt;/span&gt;&lt;span style=&quot;box-sizing: border-box; height: 1.6em; display: flex;&quot;&gt;&lt;span style=&quot;box-sizing: border-box;&quot;&gt;&lt;span style=&quot;box-sizing: border-box; color: rgb(187, 187, 187);&quot;&gt;  &lt;/span&gt;&lt;span style=&quot;box-sizing: border-box; color: rgb(0, 136, 0); font-style: italic;&quot;&gt;# 可以是 Namespaced 或 Cluster&lt;/span&gt;&lt;span style=&quot;box-sizing: border-box; color: rgb(187, 187, 187);&quot;&gt;&lt;br/&gt;&lt;/span&gt;&lt;/span&gt;&lt;/span&gt;&lt;span style=&quot;box-sizing: border-box; height: 1.6em; display: flex;&quot;&gt;&lt;span style=&quot;box-sizing: border-box;&quot;&gt;&lt;span style=&quot;box-sizing: border-box; color: rgb(187, 187, 187);&quot;&gt;  &lt;/span&gt;&lt;span style=&quot;box-sizing: border-box; color: green; font-weight: 700;&quot;&gt;scope&lt;/span&gt;:&lt;span style=&quot;box-sizing: border-box; color: rgb(187, 187, 187);&quot;&gt; &lt;/span&gt;Namespaced&lt;span style=&quot;box-sizing: border-box; color: rgb(187, 187, 187);&quot;&gt;&lt;br/&gt;&lt;/span&gt;&lt;/span&gt;&lt;/span&gt;&lt;span style=&quot;box-sizing: border-box; height: 1.6em; display: flex;&quot;&gt;&lt;span style=&quot;box-sizing: border-box;&quot;&gt;&lt;span style=&quot;box-sizing: border-box; color: rgb(187, 187, 187);&quot;&gt;  &lt;/span&gt;&lt;span style=&quot;box-sizing: border-box; color: green; font-weight: 700;&quot;&gt;names&lt;/span&gt;:&lt;span style=&quot;box-sizing: border-box; color: rgb(187, 187, 187);&quot;&gt;&lt;br/&gt;&lt;/span&gt;&lt;/span&gt;&lt;/span&gt;&lt;span style=&quot;box-sizing: border-box; height: 1.6em; display: flex;&quot;&gt;&lt;span style=&quot;box-sizing: border-box;&quot;&gt;&lt;span style=&quot;box-sizing: border-box; color: rgb(187, 187, 187);&quot;&gt;    &lt;/span&gt;&lt;span style=&quot;box-sizing: border-box; color: rgb(0, 136, 0); font-style: italic;&quot;&gt;# 名称的复数形式，用于 URL：/apis/&amp;lt;组&amp;gt;/&amp;lt;版本&amp;gt;/&amp;lt;名称的复数形式&amp;gt;&lt;/span&gt;&lt;span style=&quot;box-sizing: border-box; color: rgb(187, 187, 187);&quot;&gt;&lt;br/&gt;&lt;/span&gt;&lt;/span&gt;&lt;/span&gt;&lt;span style=&quot;box-sizing: border-box; height: 1.6em; display: flex;&quot;&gt;&lt;span style=&quot;box-sizing: border-box;&quot;&gt;&lt;span style=&quot;box-sizing: border-box; color: rgb(187, 187, 187);&quot;&gt;    &lt;/span&gt;&lt;span style=&quot;box-sizing: border-box; color: green; font-weight: 700;&quot;&gt;plural&lt;/span&gt;:&lt;span style=&quot;box-sizing: border-box; color: rgb(187, 187, 187);&quot;&gt; &lt;/span&gt;crontabs&lt;span style=&quot;box-sizing: border-box; color: rgb(187, 187, 187);&quot;&gt;&lt;br/&gt;&lt;/span&gt;&lt;/span&gt;&lt;/span&gt;&lt;span style=&quot;box-sizing: border-box; height: 1.6em; display: flex;&quot;&gt;&lt;span style=&quot;box-sizing: border-box;&quot;&gt;&lt;span style=&quot;box-sizing: border-box; color: rgb(187, 187, 187);&quot;&gt;    &lt;/span&gt;&lt;span style=&quot;box-sizing: border-box; color: rgb(0, 136, 0); font-style: italic;&quot;&gt;# 名称的单数形式，作为命令行使用时和显示时的别名&lt;/span&gt;&lt;span style=&quot;box-sizing: border-box; color: rgb(187, 187, 187);&quot;&gt;&lt;br/&gt;&lt;/span&gt;&lt;/span&gt;&lt;/span&gt;&lt;span style=&quot;box-sizing: border-box; height: 1.6em; display: flex;&quot;&gt;&lt;span style=&quot;box-sizing: border-box;&quot;&gt;&lt;span style=&quot;box-sizing: border-box; color: rgb(187, 187, 187);&quot;&gt;    &lt;/span&gt;&lt;span style=&quot;box-sizing: border-box; color: green; font-weight: 700;&quot;&gt;singular&lt;/span&gt;:&lt;span style=&quot;box-sizing: border-box; color: rgb(187, 187, 187);&quot;&gt; &lt;/span&gt;crontab&lt;span style=&quot;box-sizing: border-box; color: rgb(187, 187, 187);&quot;&gt;&lt;br/&gt;&lt;/span&gt;&lt;/span&gt;&lt;/span&gt;&lt;span style=&quot;box-sizing: border-box; height: 1.6em; display: flex;&quot;&gt;&lt;span style=&quot;box-sizing: border-box;&quot;&gt;&lt;span style=&quot;box-sizing: border-box; color: rgb(187, 187, 187);&quot;&gt;    &lt;/span&gt;&lt;span style=&quot;box-sizing: border-box; color: rgb(0, 136, 0); font-style: italic;&quot;&gt;# kind 通常是单数形式的驼峰命名（CamelCased）形式。你的资源清单会使用这一形式。&lt;/span&gt;&lt;span style=&quot;box-sizing: border-box; color: rgb(187, 187, 187);&quot;&gt;&lt;br/&gt;&lt;/span&gt;&lt;/span&gt;&lt;/span&gt;&lt;span style=&quot;box-sizing: border-box; height: 1.6em; display: flex;&quot;&gt;&lt;span style=&quot;box-sizing: border-box;&quot;&gt;&lt;span style=&quot;box-sizing: border-box; color: rgb(187, 187, 187);&quot;&gt;    &lt;/span&gt;&lt;span style=&quot;box-sizing: border-box; color: green; font-weight: 700;&quot;&gt;kind&lt;/span&gt;:&lt;span style=&quot;box-sizing: border-box; color: rgb(187, 187, 187);&quot;&gt; &lt;/span&gt;CronTab&lt;span style=&quot;box-sizing: border-box; color: rgb(187, 187, 187);&quot;&gt;&lt;br/&gt;&lt;/span&gt;&lt;/span&gt;&lt;/span&gt;&lt;span style=&quot;box-sizing: border-box; height: 1.6em; display: flex;&quot;&gt;&lt;span style=&quot;box-sizing: border-box;&quot;&gt;&lt;span style=&quot;box-sizing: border-box; color: rgb(187, 187, 187);&quot;&gt;    &lt;/span&gt;&lt;span style=&quot;box-sizing: border-box; color: rgb(0, 136, 0); font-style: italic;&quot;&gt;# shortNames 允许你在命令行使用较短的字符串来匹配资源&lt;/span&gt;&lt;span style=&quot;box-sizing: border-box; color: rgb(187, 187, 187);&quot;&gt;&lt;br/&gt;&lt;/span&gt;&lt;/span&gt;&lt;/span&gt;&lt;span style=&quot;box-sizing: border-box; height: 1.6em; display: flex;&quot;&gt;&lt;span style=&quot;box-sizing: border-box;&quot;&gt;&lt;span style=&quot;box-sizing: border-box; color: rgb(187, 187, 187);&quot;&gt;    &lt;/span&gt;&lt;span style=&quot;box-sizing: border-box; color: green; font-weight: 700;&quot;&gt;shortNames&lt;/span&gt;:&lt;span style=&quot;box-sizing: border-box; color: rgb(187, 187, 187);&quot;&gt;&lt;br/&gt;&lt;/span&gt;&lt;/span&gt;&lt;/span&gt;&lt;span style=&quot;box-sizing: border-box; height: 1.6em; display: flex;&quot;&gt;&lt;span style=&quot;box-sizing: border-box;&quot;&gt;&lt;span style=&quot;box-sizing: border-box; color: rgb(187, 187, 187);&quot;&gt;    &lt;/span&gt;- ct&lt;/span&gt;&lt;/span&gt;&lt;/code&gt;&lt;/pre&gt;" style="text;html=1;whiteSpace=wrap;overflow=hidden;rounded=0;" vertex="1" parent="1">
          <mxGeometry x="837" y="-1901" width="631" height="979" as="geometry" />
        </mxCell>
        <mxCell id="Q-_gXrq_E2TkwT5E2vg7-8" value="&lt;span style=&quot;color: rgb(34, 34, 34); font-family: &amp;quot;open sans&amp;quot;, -apple-system, BlinkMacSystemFont, &amp;quot;segoe ui&amp;quot;, Roboto, &amp;quot;helvetica neue&amp;quot;, Arial, sans-serif, &amp;quot;apple color emoji&amp;quot;, &amp;quot;segoe ui emoji&amp;quot;, &amp;quot;segoe ui symbol&amp;quot;; font-size: 16px; text-align: left;&quot;&gt;CRD所创建的自定义资源可以是名字空间作用域的，&lt;/span&gt;&lt;div&gt;&lt;span style=&quot;color: rgb(34, 34, 34); font-family: &amp;quot;open sans&amp;quot;, -apple-system, BlinkMacSystemFont, &amp;quot;segoe ui&amp;quot;, Roboto, &amp;quot;helvetica neue&amp;quot;, Arial, sans-serif, &amp;quot;apple color emoji&amp;quot;, &amp;quot;segoe ui emoji&amp;quot;, &amp;quot;segoe ui symbol&amp;quot;; font-size: 16px; text-align: left;&quot;&gt;也可以是集群作用域的， 取决于 CRD 对象&amp;nbsp;&lt;/span&gt;&lt;code style=&quot;box-sizing: border-box; font-family: SFMono-Regular, Menlo, Monaco, Consolas, &amp;quot;liberation mono&amp;quot;, &amp;quot;courier new&amp;quot;, monospace; font-size: 13.6px; color: rgb(34, 34, 34); overflow-wrap: break-word; padding: 0.2em 0.4em; margin: 0px; word-break: normal; background-color: rgba(0, 0, 0, 0.05); border-radius: 0.25rem; text-align: left;&quot;&gt;spec.scope&lt;/code&gt;&lt;span style=&quot;color: rgb(34, 34, 34); font-family: &amp;quot;open sans&amp;quot;, -apple-system, BlinkMacSystemFont, &amp;quot;segoe ui&amp;quot;, Roboto, &amp;quot;helvetica neue&amp;quot;, Arial, sans-serif, &amp;quot;apple color emoji&amp;quot;, &amp;quot;segoe ui emoji&amp;quot;, &amp;quot;segoe ui symbol&amp;quot;; font-size: 16px; text-align: left;&quot;&gt;&amp;nbsp;字段的设置&lt;/span&gt;&lt;/div&gt;" style="whiteSpace=wrap;html=1;rounded=1;arcSize=50;align=center;verticalAlign=middle;strokeWidth=1;autosize=1;spacing=4;treeFolding=1;treeMoving=1;newEdgeStyle={&quot;edgeStyle&quot;:&quot;entityRelationEdgeStyle&quot;,&quot;startArrow&quot;:&quot;none&quot;,&quot;endArrow&quot;:&quot;none&quot;,&quot;segment&quot;:10,&quot;curved&quot;:1,&quot;sourcePerimeterSpacing&quot;:0,&quot;targetPerimeterSpacing&quot;:0};" vertex="1" parent="1">
          <mxGeometry x="214.5" y="-1716" width="600" height="60" as="geometry" />
        </mxCell>
        <mxCell id="Q-_gXrq_E2TkwT5E2vg7-9" value="" style="edgeStyle=entityRelationEdgeStyle;startArrow=none;endArrow=none;segment=10;curved=1;sourcePerimeterSpacing=0;targetPerimeterSpacing=0;rounded=0;" edge="1" target="Q-_gXrq_E2TkwT5E2vg7-8" parent="1" source="Q-_gXrq_E2TkwT5E2vg7-4">
          <mxGeometry relative="1" as="geometry">
            <mxPoint x="229.5" y="-1656" as="sourcePoint" />
          </mxGeometry>
        </mxCell>
        <mxCell id="Q-_gXrq_E2TkwT5E2vg7-90" value="" style="edgeStyle=entityRelationEdgeStyle;rounded=0;orthogonalLoop=1;jettySize=auto;html=1;startArrow=none;endArrow=none;segment=10;curved=1;sourcePerimeterSpacing=0;targetPerimeterSpacing=0;" edge="1" parent="1" source="Q-_gXrq_E2TkwT5E2vg7-71" target="Q-_gXrq_E2TkwT5E2vg7-89" visible="0">
          <mxGeometry relative="1" as="geometry" />
        </mxCell>
        <mxCell id="Q-_gXrq_E2TkwT5E2vg7-92" value="" style="edgeStyle=entityRelationEdgeStyle;rounded=0;orthogonalLoop=1;jettySize=auto;html=1;startArrow=none;endArrow=none;segment=10;curved=1;sourcePerimeterSpacing=0;targetPerimeterSpacing=0;" edge="1" parent="1" source="Q-_gXrq_E2TkwT5E2vg7-71" target="Q-_gXrq_E2TkwT5E2vg7-91" visible="0">
          <mxGeometry relative="1" as="geometry" />
        </mxCell>
        <mxCell id="Q-_gXrq_E2TkwT5E2vg7-94" value="" style="edgeStyle=entityRelationEdgeStyle;rounded=0;orthogonalLoop=1;jettySize=auto;html=1;startArrow=none;endArrow=none;segment=10;curved=1;sourcePerimeterSpacing=0;targetPerimeterSpacing=0;" edge="1" parent="1" source="Q-_gXrq_E2TkwT5E2vg7-71" target="Q-_gXrq_E2TkwT5E2vg7-93" visible="0">
          <mxGeometry relative="1" as="geometry" />
        </mxCell>
        <mxCell id="Q-_gXrq_E2TkwT5E2vg7-96" value="" style="edgeStyle=entityRelationEdgeStyle;rounded=0;orthogonalLoop=1;jettySize=auto;html=1;startArrow=none;endArrow=none;segment=10;curved=1;sourcePerimeterSpacing=0;targetPerimeterSpacing=0;" edge="1" parent="1" source="Q-_gXrq_E2TkwT5E2vg7-71" target="Q-_gXrq_E2TkwT5E2vg7-95" visible="0">
          <mxGeometry relative="1" as="geometry" />
        </mxCell>
        <mxCell id="Q-_gXrq_E2TkwT5E2vg7-98" value="" style="edgeStyle=entityRelationEdgeStyle;rounded=0;orthogonalLoop=1;jettySize=auto;html=1;startArrow=none;endArrow=none;segment=10;curved=1;sourcePerimeterSpacing=0;targetPerimeterSpacing=0;" edge="1" parent="1" source="Q-_gXrq_E2TkwT5E2vg7-71" target="Q-_gXrq_E2TkwT5E2vg7-97" visible="0">
          <mxGeometry relative="1" as="geometry" />
        </mxCell>
        <mxCell id="Q-_gXrq_E2TkwT5E2vg7-71" value="&lt;b&gt;&lt;font style=&quot;font-size: 16px;&quot;&gt;Concept&lt;/font&gt;&lt;/b&gt;" style="whiteSpace=wrap;html=1;rounded=1;arcSize=50;align=center;verticalAlign=middle;strokeWidth=1;autosize=1;spacing=4;treeFolding=1;treeMoving=1;newEdgeStyle={&quot;edgeStyle&quot;:&quot;entityRelationEdgeStyle&quot;,&quot;startArrow&quot;:&quot;none&quot;,&quot;endArrow&quot;:&quot;none&quot;,&quot;segment&quot;:10,&quot;curved&quot;:1,&quot;sourcePerimeterSpacing&quot;:0,&quot;targetPerimeterSpacing&quot;:0};" vertex="1" collapsed="1" parent="1">
          <mxGeometry x="-273" y="-983" width="132" height="46" as="geometry" />
        </mxCell>
        <mxCell id="Q-_gXrq_E2TkwT5E2vg7-101" value="" style="edgeStyle=entityRelationEdgeStyle;rounded=0;orthogonalLoop=1;jettySize=auto;html=1;startArrow=none;endArrow=none;segment=10;curved=1;sourcePerimeterSpacing=0;targetPerimeterSpacing=0;" edge="1" parent="1" source="Q-_gXrq_E2TkwT5E2vg7-89" target="Q-_gXrq_E2TkwT5E2vg7-100" visible="0">
          <mxGeometry relative="1" as="geometry" />
        </mxCell>
        <mxCell id="Q-_gXrq_E2TkwT5E2vg7-89" value="&lt;b&gt;&lt;font style=&quot;font-size: 16px;&quot;&gt;API Group&lt;/font&gt;&lt;/b&gt;" style="whiteSpace=wrap;html=1;rounded=1;arcSize=50;align=center;verticalAlign=middle;strokeWidth=1;autosize=1;spacing=4;treeFolding=1;treeMoving=1;newEdgeStyle={&quot;edgeStyle&quot;:&quot;entityRelationEdgeStyle&quot;,&quot;startArrow&quot;:&quot;none&quot;,&quot;endArrow&quot;:&quot;none&quot;,&quot;segment&quot;:10,&quot;curved&quot;:1,&quot;sourcePerimeterSpacing&quot;:0,&quot;targetPerimeterSpacing&quot;:0};" vertex="1" visible="0" parent="1">
          <mxGeometry x="-35.5" y="-1212.5" width="118" height="35" as="geometry" />
        </mxCell>
        <mxCell id="Q-_gXrq_E2TkwT5E2vg7-103" value="" style="edgeStyle=entityRelationEdgeStyle;rounded=0;orthogonalLoop=1;jettySize=auto;html=1;startArrow=none;endArrow=none;segment=10;curved=1;sourcePerimeterSpacing=0;targetPerimeterSpacing=0;" edge="1" parent="1" source="Q-_gXrq_E2TkwT5E2vg7-91" target="Q-_gXrq_E2TkwT5E2vg7-102" visible="0">
          <mxGeometry relative="1" as="geometry" />
        </mxCell>
        <mxCell id="Q-_gXrq_E2TkwT5E2vg7-91" value="&lt;b&gt;&lt;font style=&quot;font-size: 16px;&quot;&gt;Version&lt;/font&gt;&lt;/b&gt;" style="whiteSpace=wrap;html=1;rounded=1;arcSize=50;align=center;verticalAlign=middle;strokeWidth=1;autosize=1;spacing=4;treeFolding=1;treeMoving=1;newEdgeStyle={&quot;edgeStyle&quot;:&quot;entityRelationEdgeStyle&quot;,&quot;startArrow&quot;:&quot;none&quot;,&quot;endArrow&quot;:&quot;none&quot;,&quot;segment&quot;:10,&quot;curved&quot;:1,&quot;sourcePerimeterSpacing&quot;:0,&quot;targetPerimeterSpacing&quot;:0};" vertex="1" visible="0" parent="1">
          <mxGeometry x="-35.5" y="-1104.5" width="118" height="35" as="geometry" />
        </mxCell>
        <mxCell id="Q-_gXrq_E2TkwT5E2vg7-105" value="" style="edgeStyle=entityRelationEdgeStyle;rounded=0;orthogonalLoop=1;jettySize=auto;html=1;startArrow=none;endArrow=none;segment=10;curved=1;sourcePerimeterSpacing=0;targetPerimeterSpacing=0;" edge="1" parent="1" source="Q-_gXrq_E2TkwT5E2vg7-93" target="Q-_gXrq_E2TkwT5E2vg7-104" visible="0">
          <mxGeometry relative="1" as="geometry" />
        </mxCell>
        <mxCell id="Q-_gXrq_E2TkwT5E2vg7-107" value="" style="edgeStyle=entityRelationEdgeStyle;rounded=0;orthogonalLoop=1;jettySize=auto;html=1;startArrow=none;endArrow=none;segment=10;curved=1;sourcePerimeterSpacing=0;targetPerimeterSpacing=0;" edge="1" parent="1" source="Q-_gXrq_E2TkwT5E2vg7-93" target="Q-_gXrq_E2TkwT5E2vg7-106" visible="0">
          <mxGeometry relative="1" as="geometry" />
        </mxCell>
        <mxCell id="Q-_gXrq_E2TkwT5E2vg7-93" value="&lt;b&gt;&lt;font style=&quot;font-size: 16px;&quot;&gt;Kind&lt;/font&gt;&lt;/b&gt;" style="whiteSpace=wrap;html=1;rounded=1;arcSize=50;align=center;verticalAlign=middle;strokeWidth=1;autosize=1;spacing=4;treeFolding=1;treeMoving=1;newEdgeStyle={&quot;edgeStyle&quot;:&quot;entityRelationEdgeStyle&quot;,&quot;startArrow&quot;:&quot;none&quot;,&quot;endArrow&quot;:&quot;none&quot;,&quot;segment&quot;:10,&quot;curved&quot;:1,&quot;sourcePerimeterSpacing&quot;:0,&quot;targetPerimeterSpacing&quot;:0};" vertex="1" visible="0" parent="1">
          <mxGeometry x="-35.5" y="-977.5" width="118" height="35" as="geometry" />
        </mxCell>
        <mxCell id="Q-_gXrq_E2TkwT5E2vg7-112" value="" style="edgeStyle=entityRelationEdgeStyle;rounded=0;orthogonalLoop=1;jettySize=auto;html=1;startArrow=none;endArrow=none;segment=10;curved=1;sourcePerimeterSpacing=0;targetPerimeterSpacing=0;" edge="1" parent="1" source="Q-_gXrq_E2TkwT5E2vg7-95" target="Q-_gXrq_E2TkwT5E2vg7-111" visible="0">
          <mxGeometry relative="1" as="geometry" />
        </mxCell>
        <mxCell id="Q-_gXrq_E2TkwT5E2vg7-114" value="" style="edgeStyle=entityRelationEdgeStyle;rounded=0;orthogonalLoop=1;jettySize=auto;html=1;startArrow=none;endArrow=none;segment=10;curved=1;sourcePerimeterSpacing=0;targetPerimeterSpacing=0;" edge="1" parent="1" source="Q-_gXrq_E2TkwT5E2vg7-95" target="Q-_gXrq_E2TkwT5E2vg7-113" visible="0">
          <mxGeometry relative="1" as="geometry" />
        </mxCell>
        <mxCell id="Q-_gXrq_E2TkwT5E2vg7-116" value="" style="edgeStyle=entityRelationEdgeStyle;rounded=0;orthogonalLoop=1;jettySize=auto;html=1;startArrow=none;endArrow=none;segment=10;curved=1;sourcePerimeterSpacing=0;targetPerimeterSpacing=0;" edge="1" parent="1" source="Q-_gXrq_E2TkwT5E2vg7-95" target="Q-_gXrq_E2TkwT5E2vg7-115" visible="0">
          <mxGeometry relative="1" as="geometry" />
        </mxCell>
        <mxCell id="Q-_gXrq_E2TkwT5E2vg7-95" value="&lt;b&gt;&lt;font style=&quot;font-size: 16px;&quot;&gt;Resource&lt;/font&gt;&lt;/b&gt;" style="whiteSpace=wrap;html=1;rounded=1;arcSize=50;align=center;verticalAlign=middle;strokeWidth=1;autosize=1;spacing=4;treeFolding=1;treeMoving=1;newEdgeStyle={&quot;edgeStyle&quot;:&quot;entityRelationEdgeStyle&quot;,&quot;startArrow&quot;:&quot;none&quot;,&quot;endArrow&quot;:&quot;none&quot;,&quot;segment&quot;:10,&quot;curved&quot;:1,&quot;sourcePerimeterSpacing&quot;:0,&quot;targetPerimeterSpacing&quot;:0};" vertex="1" visible="0" parent="1">
          <mxGeometry x="-35.5" y="-754" width="118" height="35" as="geometry" />
        </mxCell>
        <mxCell id="Q-_gXrq_E2TkwT5E2vg7-110" value="" style="edgeStyle=entityRelationEdgeStyle;rounded=0;orthogonalLoop=1;jettySize=auto;html=1;startArrow=none;endArrow=none;segment=10;curved=1;sourcePerimeterSpacing=0;targetPerimeterSpacing=0;" edge="1" parent="1" source="Q-_gXrq_E2TkwT5E2vg7-97" target="Q-_gXrq_E2TkwT5E2vg7-109" visible="0">
          <mxGeometry relative="1" as="geometry" />
        </mxCell>
        <mxCell id="Q-_gXrq_E2TkwT5E2vg7-97" value="&lt;b&gt;&lt;font style=&quot;font-size: 16px;&quot;&gt;Scheme&lt;/font&gt;&lt;/b&gt;" style="whiteSpace=wrap;html=1;rounded=1;arcSize=50;align=center;verticalAlign=middle;strokeWidth=1;autosize=1;spacing=4;treeFolding=1;treeMoving=1;newEdgeStyle={&quot;edgeStyle&quot;:&quot;entityRelationEdgeStyle&quot;,&quot;startArrow&quot;:&quot;none&quot;,&quot;endArrow&quot;:&quot;none&quot;,&quot;segment&quot;:10,&quot;curved&quot;:1,&quot;sourcePerimeterSpacing&quot;:0,&quot;targetPerimeterSpacing&quot;:0};" vertex="1" visible="0" parent="1">
          <mxGeometry x="-35.5" y="-510" width="118" height="35" as="geometry" />
        </mxCell>
        <mxCell id="Q-_gXrq_E2TkwT5E2vg7-100" value="&lt;span style=&quot;font-family: &amp;quot;Open Sans&amp;quot;, sans-serif; font-size: 16px; text-align: start;&quot;&gt;A collection of related functionalities.&amp;nbsp;&lt;/span&gt;&lt;div&gt;&lt;span style=&quot;font-family: &amp;quot;Open Sans&amp;quot;, sans-serif; font-size: 16px; text-align: start;&quot;&gt;Each group has one or more&amp;nbsp;&lt;/span&gt;&lt;em style=&quot;font-family: &amp;quot;Open Sans&amp;quot;, sans-serif; font-size: 16px; text-align: start;&quot;&gt;versions.&lt;/em&gt;&lt;/div&gt;" style="whiteSpace=wrap;html=1;rounded=1;arcSize=50;align=center;verticalAlign=bottom;strokeWidth=1;autosize=1;spacing=4;treeFolding=1;treeMoving=1;newEdgeStyle={&quot;edgeStyle&quot;:&quot;entityRelationEdgeStyle&quot;,&quot;startArrow&quot;:&quot;none&quot;,&quot;endArrow&quot;:&quot;none&quot;,&quot;segment&quot;:10,&quot;curved&quot;:1,&quot;sourcePerimeterSpacing&quot;:0,&quot;targetPerimeterSpacing&quot;:0};shape=partialRectangle;top=0;left=0;bottom=1;right=0;points=[[0,1],[1,1]];fillColor=none;routingCenterY=0.5;snapToPoint=1;recursiveResize=0;" vertex="1" visible="0" parent="1">
          <mxGeometry x="151" y="-1300" width="289" height="54" as="geometry" />
        </mxCell>
        <mxCell id="Q-_gXrq_E2TkwT5E2vg7-102" value="&lt;span style=&quot;font-family: &amp;quot;Open Sans&amp;quot;, sans-serif; font-size: 16px; text-align: start;&quot;&gt;allow us to change how an API works over time.&lt;/span&gt;" style="whiteSpace=wrap;html=1;rounded=1;arcSize=50;align=center;verticalAlign=bottom;strokeWidth=1;autosize=1;spacing=4;treeFolding=1;treeMoving=1;newEdgeStyle={&quot;edgeStyle&quot;:&quot;entityRelationEdgeStyle&quot;,&quot;startArrow&quot;:&quot;none&quot;,&quot;endArrow&quot;:&quot;none&quot;,&quot;segment&quot;:10,&quot;curved&quot;:1,&quot;sourcePerimeterSpacing&quot;:0,&quot;targetPerimeterSpacing&quot;:0};shape=partialRectangle;top=0;left=0;bottom=1;right=0;points=[[0,1],[1,1]];fillColor=none;routingCenterY=0.5;snapToPoint=1;recursiveResize=0;" vertex="1" visible="0" parent="1">
          <mxGeometry x="151" y="-1166" width="393" height="35" as="geometry" />
        </mxCell>
        <mxCell id="Q-_gXrq_E2TkwT5E2vg7-104" value="&lt;b style=&quot;text-align: left;&quot;&gt;&lt;span style=&quot;font-family: &amp;quot;Open Sans&amp;quot;, sans-serif; font-size: 16px;&quot;&gt;Each API group-version contains one or more API types, which we call&amp;nbsp;&lt;/span&gt;&lt;em style=&quot;font-family: &amp;quot;Open Sans&amp;quot;, sans-serif; font-size: 16px;&quot;&gt;Kinds&lt;/em&gt;&lt;span style=&quot;font-family: &amp;quot;Open Sans&amp;quot;, sans-serif; font-size: 16px;&quot;&gt;.&lt;/span&gt;&lt;/b&gt;" style="whiteSpace=wrap;html=1;rounded=1;arcSize=50;align=center;verticalAlign=bottom;strokeWidth=1;autosize=1;spacing=4;treeFolding=1;treeMoving=1;newEdgeStyle={&quot;edgeStyle&quot;:&quot;entityRelationEdgeStyle&quot;,&quot;startArrow&quot;:&quot;none&quot;,&quot;endArrow&quot;:&quot;none&quot;,&quot;segment&quot;:10,&quot;curved&quot;:1,&quot;sourcePerimeterSpacing&quot;:0,&quot;targetPerimeterSpacing&quot;:0};shape=partialRectangle;top=0;left=0;bottom=1;right=0;points=[[0,1],[1,1]];fillColor=none;routingCenterY=0.5;snapToPoint=1;recursiveResize=0;" vertex="1" visible="0" parent="1">
          <mxGeometry x="151" y="-1052" width="639" height="35" as="geometry" />
        </mxCell>
        <mxCell id="Q-_gXrq_E2TkwT5E2vg7-106" value="&lt;span style=&quot;font-family: &amp;quot;Open Sans&amp;quot;, sans-serif; font-size: 16px;&quot;&gt;While a Kind may change forms between versions,&amp;nbsp;&lt;/span&gt;&lt;div style=&quot;&quot;&gt;&lt;span style=&quot;font-family: &amp;quot;Open Sans&amp;quot;, sans-serif; font-size: 16px;&quot;&gt;each form must be able to store all the data of the other forms,&amp;nbsp;&lt;/span&gt;&lt;/div&gt;&lt;div style=&quot;&quot;&gt;&lt;span style=&quot;font-family: &amp;quot;Open Sans&amp;quot;, sans-serif; font-size: 16px;&quot;&gt;somehow (we can store the data in fields, or in annotations).&amp;nbsp;&lt;/span&gt;&lt;div&gt;&lt;span style=&quot;font-family: &amp;quot;Open Sans&amp;quot;, sans-serif; font-size: 16px;&quot;&gt;This means that using an older API version won’t cause newer data to be lost or corrupted.&lt;/span&gt;&lt;/div&gt;&lt;/div&gt;" style="whiteSpace=wrap;html=1;rounded=1;arcSize=50;align=left;verticalAlign=bottom;strokeWidth=1;autosize=1;spacing=4;treeFolding=1;treeMoving=1;newEdgeStyle={&quot;edgeStyle&quot;:&quot;entityRelationEdgeStyle&quot;,&quot;startArrow&quot;:&quot;none&quot;,&quot;endArrow&quot;:&quot;none&quot;,&quot;segment&quot;:10,&quot;curved&quot;:1,&quot;sourcePerimeterSpacing&quot;:0,&quot;targetPerimeterSpacing&quot;:0};shape=partialRectangle;top=0;left=0;bottom=1;right=0;points=[[0,1],[1,1]];fillColor=none;routingCenterY=0.5;snapToPoint=1;recursiveResize=0;" vertex="1" visible="0" parent="1">
          <mxGeometry x="151" y="-988" width="655" height="93" as="geometry" />
        </mxCell>
        <mxCell id="Q-_gXrq_E2TkwT5E2vg7-109" value="&lt;span style=&quot;font-family: &amp;quot;Open Sans&amp;quot;, sans-serif; font-size: 16px; text-align: start;&quot;&gt;Go type &amp;lt;&amp;lt;&amp;lt;==&amp;gt;&amp;gt;&amp;gt; a given GVK&lt;/span&gt;" style="whiteSpace=wrap;html=1;rounded=1;arcSize=50;align=center;verticalAlign=bottom;strokeWidth=1;autosize=1;spacing=4;treeFolding=1;treeMoving=1;newEdgeStyle={&quot;edgeStyle&quot;:&quot;entityRelationEdgeStyle&quot;,&quot;startArrow&quot;:&quot;none&quot;,&quot;endArrow&quot;:&quot;none&quot;,&quot;segment&quot;:10,&quot;curved&quot;:1,&quot;sourcePerimeterSpacing&quot;:0,&quot;targetPerimeterSpacing&quot;:0};shape=partialRectangle;top=0;left=0;bottom=1;right=0;points=[[0,1],[1,1]];fillColor=none;routingCenterY=0.5;snapToPoint=1;recursiveResize=0;" vertex="1" visible="0" parent="1">
          <mxGeometry x="151" y="-579.5" width="269" height="35" as="geometry" />
        </mxCell>
        <mxCell id="Q-_gXrq_E2TkwT5E2vg7-111" value="&lt;span style=&quot;font-family: &amp;quot;Open Sans&amp;quot;, sans-serif; font-size: 16px; text-align: left;&quot;&gt;A resource is simply a use of a Kind in the API.&lt;/span&gt;" style="whiteSpace=wrap;html=1;rounded=1;arcSize=50;align=center;verticalAlign=bottom;strokeWidth=1;autosize=1;spacing=4;treeFolding=1;treeMoving=1;newEdgeStyle={&quot;edgeStyle&quot;:&quot;entityRelationEdgeStyle&quot;,&quot;startArrow&quot;:&quot;none&quot;,&quot;endArrow&quot;:&quot;none&quot;,&quot;segment&quot;:10,&quot;curved&quot;:1,&quot;sourcePerimeterSpacing&quot;:0,&quot;targetPerimeterSpacing&quot;:0};shape=partialRectangle;top=0;left=0;bottom=1;right=0;points=[[0,1],[1,1]];fillColor=none;routingCenterY=0.5;snapToPoint=1;recursiveResize=0;" vertex="1" visible="0" parent="1">
          <mxGeometry x="151" y="-871.5" width="370" height="35" as="geometry" />
        </mxCell>
        <mxCell id="Q-_gXrq_E2TkwT5E2vg7-113" value="&lt;span style=&quot;font-family: &amp;quot;Open Sans&amp;quot;, sans-serif; font-size: 16px;&quot;&gt;Sometimes, the same Kind may be returned by multiple resources.&lt;/span&gt;&lt;div style=&quot;&quot;&gt;&lt;span style=&quot;font-family: &amp;quot;Open Sans&amp;quot;, sans-serif; font-size: 16px;&quot;&gt;For instance, the&amp;nbsp;&lt;/span&gt;&lt;code class=&quot;hljs&quot; style=&quot;display: inline; overflow-x: initial; background: rgb(246, 247, 246); color: var(--inline-code-color); padding: 0.1em 0.3em; border-radius: 3px; font-family: var(--mono-font) !important; direction: ltr !important;&quot;&gt;&lt;b&gt;&lt;font style=&quot;font-size: 16px;&quot;&gt;Scale&lt;/font&gt;&lt;/b&gt;&lt;/code&gt;&lt;span style=&quot;font-family: &amp;quot;Open Sans&amp;quot;, sans-serif; font-size: 16px;&quot;&gt;&amp;nbsp;Kind is returned by all scale subresources, like&amp;nbsp;&lt;/span&gt;&lt;code class=&quot;hljs&quot; style=&quot;display: inline; overflow-x: initial; background: rgb(246, 247, 246); color: var(--inline-code-color); padding: 0.1em 0.3em; border-radius: 3px; font-family: var(--mono-font) !important; direction: ltr !important;&quot;&gt;&lt;font style=&quot;font-size: 16px;&quot;&gt;&lt;b&gt;deployments/scale&lt;/b&gt;&lt;/font&gt;&lt;/code&gt;&lt;span style=&quot;font-family: &amp;quot;Open Sans&amp;quot;, sans-serif; font-size: 16px;&quot;&gt;&amp;nbsp;or&amp;nbsp;&lt;/span&gt;&lt;code class=&quot;hljs&quot; style=&quot;display: inline; overflow-x: initial; background: rgb(246, 247, 246); color: var(--inline-code-color); padding: 0.1em 0.3em; border-radius: 3px; font-family: var(--mono-font) !important; direction: ltr !important;&quot;&gt;&lt;b&gt;&lt;font style=&quot;font-size: 16px;&quot;&gt;replicasets/scale&lt;/font&gt;&lt;/b&gt;&lt;/code&gt;&lt;span style=&quot;font-family: &amp;quot;Open Sans&amp;quot;, sans-serif; font-size: 16px;&quot;&gt;.&lt;/span&gt;&lt;/div&gt;&lt;div style=&quot;&quot;&gt;&lt;span style=&quot;font-family: &amp;quot;Open Sans&amp;quot;, sans-serif; font-size: 16px;&quot;&gt;This is what allows the Kubernetes HorizontalPodAutoscaler to interact with different resources.&lt;/span&gt;&lt;/div&gt;" style="whiteSpace=wrap;html=1;rounded=1;arcSize=50;align=left;verticalAlign=bottom;strokeWidth=1;autosize=1;spacing=4;treeFolding=1;treeMoving=1;newEdgeStyle={&quot;edgeStyle&quot;:&quot;entityRelationEdgeStyle&quot;,&quot;startArrow&quot;:&quot;none&quot;,&quot;endArrow&quot;:&quot;none&quot;,&quot;segment&quot;:10,&quot;curved&quot;:1,&quot;sourcePerimeterSpacing&quot;:0,&quot;targetPerimeterSpacing&quot;:0};shape=partialRectangle;top=0;left=0;bottom=1;right=0;points=[[0,1],[1,1]];fillColor=none;routingCenterY=0.5;snapToPoint=1;recursiveResize=0;" vertex="1" visible="0" parent="1">
          <mxGeometry x="151" y="-792" width="836" height="74" as="geometry" />
        </mxCell>
        <mxCell id="Q-_gXrq_E2TkwT5E2vg7-115" value="&lt;span style=&quot;font-family: &amp;quot;Open Sans&amp;quot;, sans-serif; font-size: 16px; text-align: left;&quot;&gt;With CRDs, however, each Kind will correspond to a single resource.&lt;/span&gt;" style="whiteSpace=wrap;html=1;rounded=1;arcSize=50;align=center;verticalAlign=bottom;strokeWidth=1;autosize=1;spacing=4;treeFolding=1;treeMoving=1;newEdgeStyle={&quot;edgeStyle&quot;:&quot;entityRelationEdgeStyle&quot;,&quot;startArrow&quot;:&quot;none&quot;,&quot;endArrow&quot;:&quot;none&quot;,&quot;segment&quot;:10,&quot;curved&quot;:1,&quot;sourcePerimeterSpacing&quot;:0,&quot;targetPerimeterSpacing&quot;:0};shape=partialRectangle;top=0;left=0;bottom=1;right=0;points=[[0,1],[1,1]];fillColor=none;routingCenterY=0.5;snapToPoint=1;recursiveResize=0;" vertex="1" visible="0" parent="1">
          <mxGeometry x="151" y="-666.5" width="526" height="35" as="geometry" />
        </mxCell>
        <mxCell id="Q-_gXrq_E2TkwT5E2vg7-119" value="" style="edgeStyle=entityRelationEdgeStyle;rounded=0;orthogonalLoop=1;jettySize=auto;html=1;startArrow=none;endArrow=none;segment=10;curved=1;sourcePerimeterSpacing=0;targetPerimeterSpacing=0;" edge="1" parent="1" source="Q-_gXrq_E2TkwT5E2vg7-117" target="Q-_gXrq_E2TkwT5E2vg7-118">
          <mxGeometry relative="1" as="geometry" />
        </mxCell>
        <mxCell id="Q-_gXrq_E2TkwT5E2vg7-121" value="" style="edgeStyle=entityRelationEdgeStyle;rounded=0;orthogonalLoop=1;jettySize=auto;html=1;startArrow=none;endArrow=none;segment=10;curved=1;sourcePerimeterSpacing=0;targetPerimeterSpacing=0;" edge="1" parent="1" source="Q-_gXrq_E2TkwT5E2vg7-117" target="Q-_gXrq_E2TkwT5E2vg7-120">
          <mxGeometry relative="1" as="geometry" />
        </mxCell>
        <mxCell id="Q-_gXrq_E2TkwT5E2vg7-117" value="&lt;b&gt;&lt;font style=&quot;font-size: 18px;&quot;&gt;Operator&lt;/font&gt;&lt;/b&gt;" style="ellipse;whiteSpace=wrap;html=1;align=center;newEdgeStyle={&quot;edgeStyle&quot;:&quot;entityRelationEdgeStyle&quot;,&quot;startArrow&quot;:&quot;none&quot;,&quot;endArrow&quot;:&quot;none&quot;,&quot;segment&quot;:10,&quot;curved&quot;:1,&quot;sourcePerimeterSpacing&quot;:0,&quot;targetPerimeterSpacing&quot;:0};treeFolding=1;treeMoving=1;strokeWidth=3;" vertex="1" parent="1">
          <mxGeometry x="-589" y="-1356" width="160" height="71" as="geometry" />
        </mxCell>
        <mxCell id="Q-_gXrq_E2TkwT5E2vg7-125" value="" style="edgeStyle=entityRelationEdgeStyle;rounded=0;orthogonalLoop=1;jettySize=auto;html=1;startArrow=none;endArrow=none;segment=10;curved=1;sourcePerimeterSpacing=0;targetPerimeterSpacing=0;" edge="1" parent="1" source="Q-_gXrq_E2TkwT5E2vg7-118" target="Q-_gXrq_E2TkwT5E2vg7-124">
          <mxGeometry relative="1" as="geometry" />
        </mxCell>
        <mxCell id="Q-_gXrq_E2TkwT5E2vg7-118" value="&lt;b&gt;&lt;font style=&quot;font-size: 18px;&quot;&gt;API&lt;/font&gt;&lt;/b&gt;" style="whiteSpace=wrap;html=1;align=center;newEdgeStyle={&quot;edgeStyle&quot;:&quot;entityRelationEdgeStyle&quot;,&quot;startArrow&quot;:&quot;none&quot;,&quot;endArrow&quot;:&quot;none&quot;,&quot;segment&quot;:10,&quot;curved&quot;:1,&quot;sourcePerimeterSpacing&quot;:0,&quot;targetPerimeterSpacing&quot;:0};treeFolding=1;treeMoving=1;rounded=1;arcSize=50;strokeWidth=1;autosize=1;spacing=4;" vertex="1" parent="1">
          <mxGeometry x="-381" y="-1434" width="125" height="38" as="geometry" />
        </mxCell>
        <mxCell id="Q-_gXrq_E2TkwT5E2vg7-127" value="" style="edgeStyle=entityRelationEdgeStyle;rounded=0;orthogonalLoop=1;jettySize=auto;html=1;startArrow=none;endArrow=none;segment=10;curved=1;sourcePerimeterSpacing=0;targetPerimeterSpacing=0;" edge="1" parent="1" source="Q-_gXrq_E2TkwT5E2vg7-120" target="Q-_gXrq_E2TkwT5E2vg7-126">
          <mxGeometry relative="1" as="geometry" />
        </mxCell>
        <mxCell id="Q-_gXrq_E2TkwT5E2vg7-129" value="" style="edgeStyle=entityRelationEdgeStyle;rounded=0;orthogonalLoop=1;jettySize=auto;html=1;startArrow=none;endArrow=none;segment=10;curved=1;sourcePerimeterSpacing=0;targetPerimeterSpacing=0;" edge="1" parent="1" source="Q-_gXrq_E2TkwT5E2vg7-120" target="Q-_gXrq_E2TkwT5E2vg7-128">
          <mxGeometry relative="1" as="geometry" />
        </mxCell>
        <mxCell id="Q-_gXrq_E2TkwT5E2vg7-131" value="" style="edgeStyle=entityRelationEdgeStyle;rounded=0;orthogonalLoop=1;jettySize=auto;html=1;startArrow=none;endArrow=none;segment=10;curved=1;sourcePerimeterSpacing=0;targetPerimeterSpacing=0;" edge="1" parent="1" source="Q-_gXrq_E2TkwT5E2vg7-120" target="Q-_gXrq_E2TkwT5E2vg7-130">
          <mxGeometry relative="1" as="geometry" />
        </mxCell>
        <mxCell id="Q-_gXrq_E2TkwT5E2vg7-120" value="&lt;b&gt;&lt;font style=&quot;font-size: 18px;&quot;&gt;Controller&lt;/font&gt;&lt;/b&gt;" style="whiteSpace=wrap;html=1;align=center;newEdgeStyle={&quot;edgeStyle&quot;:&quot;entityRelationEdgeStyle&quot;,&quot;startArrow&quot;:&quot;none&quot;,&quot;endArrow&quot;:&quot;none&quot;,&quot;segment&quot;:10,&quot;curved&quot;:1,&quot;sourcePerimeterSpacing&quot;:0,&quot;targetPerimeterSpacing&quot;:0};treeFolding=1;treeMoving=1;rounded=1;arcSize=50;strokeWidth=1;autosize=1;spacing=4;" vertex="1" parent="1">
          <mxGeometry x="-381" y="-1231.5" width="125" height="38" as="geometry" />
        </mxCell>
        <mxCell id="Q-_gXrq_E2TkwT5E2vg7-124" value="&lt;div style=&quot;text-align: left;&quot;&gt;&lt;span style=&quot;font-family: &amp;quot;Open Sans&amp;quot;, sans-serif; font-size: 16px; background-color: initial;&quot;&gt;New APIs are how we teach Kubernetes about our custom objects.&lt;/span&gt;&lt;/div&gt;&lt;div style=&quot;text-align: left;&quot;&gt;&lt;span style=&quot;font-family: &amp;quot;Open Sans&amp;quot;, sans-serif; font-size: 16px;&quot;&gt;We can then create instances of our custom objects which will be managed by our&amp;nbsp;&lt;/span&gt;&lt;a style=&quot;text-decoration-line: none; font-family: &amp;quot;Open Sans&amp;quot;, sans-serif; font-size: 16px;&quot; href=&quot;https://book.kubebuilder.io/cronjob-tutorial/controller-overview&quot;&gt;controllers&lt;/a&gt;&lt;/div&gt;" style="whiteSpace=wrap;html=1;align=center;newEdgeStyle={&quot;edgeStyle&quot;:&quot;entityRelationEdgeStyle&quot;,&quot;startArrow&quot;:&quot;none&quot;,&quot;endArrow&quot;:&quot;none&quot;,&quot;segment&quot;:10,&quot;curved&quot;:1,&quot;sourcePerimeterSpacing&quot;:0,&quot;targetPerimeterSpacing&quot;:0};treeFolding=1;treeMoving=1;rounded=1;arcSize=50;strokeWidth=1;autosize=1;spacing=4;shape=partialRectangle;top=0;left=0;bottom=1;right=0;points=[[0,1],[1,1]];fillColor=none;verticalAlign=bottom;routingCenterY=0.5;snapToPoint=1;recursiveResize=0;" vertex="1" parent="1">
          <mxGeometry x="-195" y="-1534" width="699" height="54" as="geometry" />
        </mxCell>
        <mxCell id="Q-_gXrq_E2TkwT5E2vg7-126" value="&lt;span style=&quot;font-family: &amp;quot;Open Sans&amp;quot;, sans-serif; font-size: 16px; text-align: start;&quot;&gt;&lt;b&gt;Reconciling:&lt;/b&gt; ensure any given object, actual state ==&lt;/span&gt;&lt;span style=&quot;font-family: &amp;quot;Open Sans&amp;quot;, sans-serif; font-size: 16px; text-align: start;&quot;&gt;&amp;nbsp;desired state.&lt;/span&gt;" style="whiteSpace=wrap;html=1;align=center;newEdgeStyle={&quot;edgeStyle&quot;:&quot;entityRelationEdgeStyle&quot;,&quot;startArrow&quot;:&quot;none&quot;,&quot;endArrow&quot;:&quot;none&quot;,&quot;segment&quot;:10,&quot;curved&quot;:1,&quot;sourcePerimeterSpacing&quot;:0,&quot;targetPerimeterSpacing&quot;:0};treeFolding=1;treeMoving=1;rounded=1;arcSize=50;strokeWidth=1;autosize=1;spacing=4;shape=partialRectangle;top=0;left=0;bottom=1;right=0;points=[[0,1],[1,1]];fillColor=none;verticalAlign=bottom;routingCenterY=0.5;snapToPoint=1;recursiveResize=0;" vertex="1" parent="1">
          <mxGeometry x="-187" y="-1298" width="496" height="35" as="geometry" />
        </mxCell>
        <mxCell id="Q-_gXrq_E2TkwT5E2vg7-128" value="&lt;span style=&quot;font-family: &amp;quot;Open Sans&amp;quot;, sans-serif; font-size: 16px; text-align: start;&quot;&gt;Each controller focuses on one&amp;nbsp;&lt;/span&gt;&lt;em style=&quot;font-family: &amp;quot;Open Sans&amp;quot;, sans-serif; font-size: 16px; text-align: start;&quot;&gt;root&lt;/em&gt;&lt;span style=&quot;font-family: &amp;quot;Open Sans&amp;quot;, sans-serif; font-size: 16px; text-align: start;&quot;&gt;&amp;nbsp;Kind, but may interact with other Kinds.&lt;/span&gt;" style="whiteSpace=wrap;html=1;align=center;newEdgeStyle={&quot;edgeStyle&quot;:&quot;entityRelationEdgeStyle&quot;,&quot;startArrow&quot;:&quot;none&quot;,&quot;endArrow&quot;:&quot;none&quot;,&quot;segment&quot;:10,&quot;curved&quot;:1,&quot;sourcePerimeterSpacing&quot;:0,&quot;targetPerimeterSpacing&quot;:0};treeFolding=1;treeMoving=1;rounded=1;arcSize=50;strokeWidth=1;autosize=1;spacing=4;shape=partialRectangle;top=0;left=0;bottom=1;right=0;points=[[0,1],[1,1]];fillColor=none;verticalAlign=bottom;routingCenterY=0.5;snapToPoint=1;recursiveResize=0;" vertex="1" parent="1">
          <mxGeometry x="-187" y="-1229.5" width="573" height="35" as="geometry" />
        </mxCell>
        <mxCell id="Q-_gXrq_E2TkwT5E2vg7-130" value="&lt;span style=&quot;font-family: &amp;quot;Open Sans&amp;quot;, sans-serif; font-size: 16px; text-align: start;&quot;&gt;A reconciler takes the name of an object, and returns whether or not we need to try again.&lt;/span&gt;" style="whiteSpace=wrap;html=1;align=center;newEdgeStyle={&quot;edgeStyle&quot;:&quot;entityRelationEdgeStyle&quot;,&quot;startArrow&quot;:&quot;none&quot;,&quot;endArrow&quot;:&quot;none&quot;,&quot;segment&quot;:10,&quot;curved&quot;:1,&quot;sourcePerimeterSpacing&quot;:0,&quot;targetPerimeterSpacing&quot;:0};treeFolding=1;treeMoving=1;rounded=1;arcSize=50;strokeWidth=1;autosize=1;spacing=4;shape=partialRectangle;top=0;left=0;bottom=1;right=0;points=[[0,1],[1,1]];fillColor=none;verticalAlign=bottom;routingCenterY=0.5;snapToPoint=1;recursiveResize=0;" vertex="1" parent="1">
          <mxGeometry x="-189" y="-1154.5" width="673" height="35" as="geometry" />
        </mxCell>
      </root>
    </mxGraphModel>
  </diagram>
</mxfile>
